# xmcd
#
# Track frame offsets:
#	150
#	13275
#	32475
#	50625
#	66450
#	81900
#	102675
#	117825
#	136125
#	155925
#	175950
#	189750
#	207150
#	225825
#	242100
#	259050
#
# Disc length: 3476 seconds
#
# Revision: 1
# Processed by: cddbd v1.5.2PL0 Copyright (c) Steve Scherf et al.
# Submitted via: audiograbber 1.83.01
#
DISCID=df0d9210
DTITLE=Various Artist - BCY004
DYEAR=1900
DGENRE=Karaoke
TTITLE0=Toby Keith - Big Blue Note
TTITLE1=Faith Hill - Like We Never Loved At All
TTITLE2=Shania Twain - Shoes
TTITLE3=Big And Rich - Comin' to Your City
TTITLE4=Alan Jackson - USA Today
TTITLE5=Keith Urban - Better Life
TTITLE6=Terri Clark - She Didn't Have The Time
TTITLE7=Gary Allan - Best I Ever Had
TTITLE8=Rascal Flatts - Skin (Sarabeth)
TTITLE9=Dierks Bently - Come A Little Closer
TTITLE10=Joe Nichols - Tequila Makes Her Clothes Fall Off
TTITLE11=Billy Currington - Must Be Doin' Somethin' Right
TTITLE12=Josh Gracin - Stay With Me (Brass Bed)
TTITLE13=Neal McCoy - Billy's Got His Bear Goggles On
TTITLE14=Randy Travis - Angels
TTITLE15=Data - Data Track
EXTD=
EXTT0=
EXTT1=
EXTT2=
EXTT3=
EXTT4=
EXTT5=
EXTT6=
EXTT7=
EXTT8=
EXTT9=
EXTT10=
EXTT11=
EXTT12=
EXTT13=
EXTT14=
EXTT15=
PLAYORDER=
